<!DOCTYPE svg PUBLIC "-//W3C//DTD SVG 1.1//EN" "http://www.w3.org/Graphics/SVG/1.1/DTD/svg11.dtd">
<svg xmlns="http://www.w3.org/2000/svg" height="80.000mm" version="1.1" width="168.000mm">
  <rect height="80.000mm" style="fill:white" width="168.000mm"/>
  <g id="pn-rev" style="fill:black;font-size:18pt;text-anchor:middle;" font-weight="bold">
    <text id="pn" transform="translate(85, 35)">735-00211</text>
    <text id="rev" transform="translate(245, 35)">Rev.1</text>
  </g>
  <g id="qr" transform="translate(20, 20) scale(7.5)">
    <path transform="scale(1)" class="qrline" stroke="#000" d="M4 4.5h7m2 0h3m1 0h3m2 0h7m-25 1h1m5 0h1m2 0h1m8 0h1m5 0h1m-25 1h1m1 0h3m1 0h1m2 0h2m1 0h1m1 0h3m1 0h1m1 0h3m1 0h1m-25 1h1m1 0h3m1 0h1m1 0h1m3 0h1m2 0h2m1 0h1m1 0h3m1 0h1m-25 1h1m1 0h3m1 0h1m1 0h2m3 0h1m1 0h2m1 0h1m1 0h3m1 0h1m-25 1h1m5 0h1m3 0h1m1 0h3m1 0h1m1 0h1m5 0h1m-25 1h7m1 0h1m1 0h1m1 0h1m1 0h1m1 0h1m1 0h7m-15 1h3m2 0h1m-16 1h2m3 0h3m1 0h2m2 0h1m2 0h1m3 0h2m-22 1h1m1 0h3m2 0h2m1 0h4m1 0h3m2 0h1m2 0h1m-19 1h2m3 0h1m2 0h1m1 0h1m2 0h1m2 0h2m1 0h1m-25 1h1m1 0h2m1 0h1m2 0h1m6 0h1m2 0h1m1 0h2m-21 1h2m3 0h1m1 0h6m1 0h1m1 0h2m3 0h1m-23 1h3m4 0h1m1 0h1m5 0h1m1 0h1m6 0h1m-25 1h1m1 0h1m2 0h6m1 0h1m1 0h2m2 0h1m1 0h1m1 0h3m-25 1h1m3 0h2m3 0h4m2 0h4m1 0h4m-24 1h1m1 0h3m1 0h3m1 0h1m2 0h1m1 0h7m2 0h1m-17 1h2m1 0h2m1 0h3m3 0h5m-25 1h7m1 0h1m2 0h1m2 0h1m1 0h1m1 0h1m1 0h1m1 0h1m1 0h1m-25 1h1m5 0h1m1 0h1m1 0h3m3 0h1m3 0h1m3 0h1m-25 1h1m1 0h3m1 0h1m2 0h1m2 0h1m1 0h7m1 0h1m1 0h1m-25 1h1m1 0h3m1 0h1m2 0h2m3 0h1m1 0h1m1 0h2m2 0h1m-23 1h1m1 0h3m1 0h1m2 0h1m5 0h1m1 0h1m3 0h2m1 0h1m-25 1h1m5 0h1m1 0h5m1 0h3m1 0h2m4 0h1m-25 1h7m1 0h1m1 0h2m2 0h7m3 0h1"/>
  </g>
  <g transform="translate(150, 280)" font-weight="bold" id="sn">
    <text style="fill:black;font-size:19pt;text-anchor:middle;" id="sn-text">SN: SM2128010022</text>
  </g>
</svg>